<?xml version="1.0" standalone="no"?>
<!DOCTYPE svg PUBLIC "-//W3C//DTD SVG 1.1//EN" "http://www.w3.org/Graphics/SVG/1.1/DTD/svg11.dtd" >
<!--
2013-9-30: Created.
-->
<svg>
<metadata>
Created by iconfont
</metadata>
<defs>

<font id="iconfont" horiz-adv-x="1024" >
  <font-face
    font-family="iconfont"
    font-weight="500"
    font-stretch="normal"
    units-per-em="1024"
    ascent="896"
    descent="-128"
  />
    <missing-glyph />
    
    <glyph glyph-name="yonghu" unicode="&#58912;" d="M437.968 735.488c123.584 0 223.744-98.512 223.744-220.048 0-121.552-100.176-220.096-223.744-220.096-123.584 0-223.744 98.544-223.744 220.064C214.224 636.976 314.384 735.488 437.968 735.488zM437.968 735.488c123.584 0 223.744-98.512 223.744-220.048 0-121.552-100.176-220.096-223.744-220.096-123.584 0-223.744 98.544-223.744 220.064C214.224 636.976 314.384 735.488 437.968 735.488zM354.048 221.984l186.464 0c159.616 0 289.008-127.28 289.008-284.272l0-18.336c0-61.84-129.392-64.208-289.008-64.208L354.048-144.832c-159.616 0-289.008 0.032-289.008 64.208l0 18.336C65.04 94.704 194.448 221.984 354.048 221.984zM748.432 642.816l208.496 0c6.384 0 11.616-5.136 11.616-11.584l0-69.488c0-6.384-5.184-11.6-11.616-11.6L748.432 550.144c-6.384 0-11.568 5.216-11.568 11.6l0 69.488C736.88 637.68 742.048 642.816 748.432 642.816zM817.936 712.336l69.504 0c6.4 0 11.6-5.168 11.6-11.6l0-208.496c0-6.384-5.184-11.6-11.6-11.6l-69.504 0c-6.4 0-11.568 5.216-11.568 11.6L806.368 700.736C806.368 707.168 811.536 712.336 817.936 712.336z"  horiz-adv-x="1024" />

    
    <glyph glyph-name="sousuo" unicode="&#59075;" d="M918.385-17.233 749.222 151.93c-2.931 2.93-6.58 4.366-9.989 6.579 98.28 138.954 86.077 332.163-38.342 456.582-139.014 139.073-364.464 139.073-503.538 0-139.073-139.014-139.073-364.403 0-503.538 125.794-125.795 321.636-136.562 460.948-34.814 2.213-3.169 3.589-6.639 6.34-9.45l169.162-169.162c23.448-23.388 61.253-23.388 84.582 0C941.714-78.426 941.714-40.561 918.385-17.233L918.385-17.233zM629.649 182.914c-99.655-99.654-261.22-99.654-360.934 0-99.655 99.654-99.655 261.279 0 360.935 99.654 99.654 261.22 99.654 360.934 0C729.363 444.134 729.363 282.569 629.649 182.914L629.649 182.914z"  horiz-adv-x="1029" />

    
    <glyph glyph-name="lajitong" unicode="&#58923;" d="M608 128c-17.696 0-32 14.304-32 32L576 512c0 17.696 14.304 32 32 32s32-14.304 32-32l0-352C640 142.304 625.696 128 608 128zM416 128c-17.696 0-32 14.304-32 32L384 512c0 17.696 14.304 32 32 32s32-14.304 32-32l0-352C448 142.304 433.696 128 416 128zM928 672l-160 0L768 736c0 52.928-42.72 96-95.264 96L352 832C299.072 832 256 788.928 256 736l0-64L96 672C78.304 672 64 657.696 64 640s14.304-32 32-32l832 0c17.696 0 32 14.304 32 32S945.696 672 928 672zM320 736c0 17.632 14.368 32 32 32l320.736 0C690.272 768 704 753.952 704 736l0-64L320 672 320 736zM736.128-64 288.064-64c-52.928 0-96 43.072-96 96L192.064 512.48c0 17.664 14.336 32 32 32s32-14.336 32-32L256.064 32c0-17.664 14.368-32 32-32l448.064 0c17.664 0 32 14.336 32 32L768.128 511.168c0 17.664 14.304 32 32 32s32-14.336 32-32L832.128 32C832.128-20.928 789.056-64 736.128-64z"  horiz-adv-x="1024" />

    
    <glyph glyph-name="gengduo-2" unicode="&#58945;" d="M363.23 620.547h497.825c23.942 0 43.35 19.408 43.35 43.35s-19.408 43.35-43.35 43.35h-497.825c-23.942 0-43.35-19.408-43.35-43.35s19.408-43.35 43.35-43.35zM861.054 424.070h-497.825c-23.939-0.004-43.343-19.411-43.343-43.35 0-23.939 19.405-43.346 43.343-43.35l497.825-0c23.939 0.004 43.343 19.411 43.343 43.35 0 23.939-19.405 43.346-43.343 43.35zM861.054 140.9h-497.825c-23.942 0-43.35-19.408-43.35-43.35s19.408-43.35 43.35-43.35l497.825 0c23.942-0 43.35 19.408 43.35 43.35s-19.408 43.35-43.35 43.35zM125.123 663.897c-0-42.297 34.288-76.585 76.585-76.585s76.585 34.288 76.585 76.585c0 42.297-34.288 76.585-76.585 76.585-42.297 0-76.585-34.288-76.585-76.585zM125.123 382.121c-0-42.297 34.288-76.585 76.585-76.585s76.585 34.288 76.585 76.585c0 42.297-34.288 76.585-76.585 76.585-42.297 0-76.585-34.288-76.585-76.585zM125.123 100.346c-0-42.297 34.288-76.585 76.585-76.585s76.585 34.288 76.585 76.585c0 42.297-34.288 76.585-76.585 76.585-42.297 0-76.585-34.288-76.585-76.585z"  horiz-adv-x="1024" />

    
    <glyph glyph-name="daochu" unicode="&#59044;" d="M832-65.537H192.004C86.125-65.537 0 21.917 0 129.43V519.375c0 35.923 28.63 64.99 64.007 64.99 35.37 0 63.993-29.067 63.993-64.99v-389.946c0-35.796 28.689-64.985 64.005-64.985h639.994c35.314 0 64 29.19 64 64.985V519.375c0 35.923 28.628 64.99 63.994 64.99 35.383 0 64.007-29.067 64.007-64.99v-389.946c0.001-107.512-86.128-194.966-192-194.966zM534.622 821.349c-12.431 12.634-32.813 12.634-45.245 0L278.63 607.34c-12.433-12.627-8.25-22.973 9.376-22.973H352c17.629 0 32.008-14.6 32.008-32.493v-129.985c0-17.898 14.369-32.495 31.997-32.495h191.99c17.631 0 32.008 14.597 32.008 32.495V551.873c0 17.893 14.37 32.493 32 32.493h63.991c17.63 0 21.822 10.346 9.375 22.972L534.623 821.35z m105.381-529.443c0-17.895-14.313-32.492-32.007-32.492-17.686 0-31.996 14.597-31.996 32.492 0 18.027 14.31 32.497 31.996 32.497 17.694 0 32.007-14.47 32.007-32.497z m-192.004 0c0-17.895-14.308-32.492-31.995-32.492-17.688 0-31.997 14.597-31.997 32.492 0 18.027 14.308 32.497 31.997 32.497 17.687 0 31.995-14.47 31.995-32.497z m-31.995 32.497h191.99v-64.99h-191.99v64.99z"  horiz-adv-x="1025" />

    
    <glyph glyph-name="pipei" unicode="&#58905;" d="M329.142857 349.866667H160.914286c14.628571-170.666667 151.161905-304.761905 321.828571-319.390477v165.790477c-78.019048 14.628571-138.971429 75.580952-153.6 153.6zM702.171429 415.695238h165.790476c-14.628571 170.666667-151.161905 307.2-321.828572 321.828572v-168.228572c80.457143-14.628571 141.409524-75.580952 156.038096-153.6zM482.742857 569.295238V737.52381c-170.666667-14.628571-307.2-151.161905-321.828571-321.828572h168.228571c12.190476 78.019048 75.580952 138.971429 153.6 153.6zM546.133333 196.266667v-165.790477c170.666667 14.628571 304.761905 151.161905 321.828572 319.390477h-165.790476c-14.628571-78.019048-75.580952-138.971429-156.038096-153.6zM392.533333 349.866667c12.190476-43.885714 46.32381-78.019048 90.209524-90.209524v90.209524h-90.209524zM638.780952 415.695238c-12.190476 43.885714-46.32381 80.457143-90.209523 90.209524v-90.209524h90.209523zM546.133333 259.657143c43.885714 12.190476 78.019048 46.32381 90.209524 90.209524h-90.209524v-90.209524zM482.742857 505.904762c-43.885714-12.190476-78.019048-46.32381-90.209524-90.209524h90.209524V505.904762zM512 896C229.180952 896 0 666.819048 0 384s229.180952-512 512-512 512 229.180952 512 512S794.819048 896 512 896z m2.438095-933.790476c-231.619048 0-419.352381 187.733333-419.352381 419.352381S282.819048 800.914286 514.438095 800.914286s419.352381-187.733333 419.352381-419.352381-187.733333-419.352381-419.352381-419.352381z"  horiz-adv-x="1024" />

    
    <glyph glyph-name="tubiao-" unicode="&#59314;" d="M919.36 115.84l-70.08 70.08a176.64 176.64 0 1 1-45.12-45.12l70.08-70.08a32 32 0 0 1 45.12 45.12z m-294.08 90.56a112 112 0 1 0 79.04-32 112 112 0 0 0-79.04 32zM608 558.4A24 24 0 0 1 608 512h160a24 24 0 0 1 0 48zM466.24 253.12h3.2a24 24 0 0 1 23.68 20.8 125.12 125.12 0 0 1 0 17.28A128 128 0 0 1 416 408a81.28 81.28 0 1 1-113.6 0A128 128 0 0 1 224 290.88a125.12 125.12 0 0 1 0-17.28 24 24 0 0 1 23.68-20.8h3.2a24 24 0 0 1 20.48 26.88 80.32 80.32 0 0 0 0 10.56 83.2 83.2 0 0 0 85.76 80.64h2.88a83.2 83.2 0 0 0 88-80 80.32 80.32 0 0 0 0-10.56 24 24 0 0 1 18.24-27.2z m-108.16 245.76a32 32 0 1 0-32-32 32 32 0 0 0 32 32zM512 130.56H160v512h704v-120a32 32 0 1 1 64 0V674.56a32 32 0 0 1-32 32H128a32 32 0 0 1-32-32v-576a32 32 0 0 1 32-32h384a32 32 0 1 1 0 64z"  horiz-adv-x="1024" />

    
    <glyph glyph-name="huahua" unicode="&#58881;" d="M956.6 533.2c-16.2 48.3-40 93.3-70.9 133.9l55.5 96.2c6.9 12 8.8 26 5.2 39.5-3.6 13.4-12.2 24.6-24.2 31.6-7.9 4.6-16.9 7-26 7-18.5 0-35.8-10-45.1-26L799 724.9c-0.1-0.2-0.2-0.4-0.4-0.6l-32.9-57-0.3-0.6-182.7-316.4c-6.9-12-8.8-26-5.2-39.5 3.6-13.4 12.2-24.6 24.2-31.6 7.9-4.6 16.9-7 26-7 18.5 0 35.8 10 45.1 26l155.1 268.6c35-60.1 51.8-128.4 48.7-199.4-1.9-43.8-12.6-87.1-31.8-128.6-16.9-36.7-39.8-70.4-67.9-100.5H666.6c-3.1 21.5-13.7 40.9-30.3 55.3-16.5 14.3-37.6 22.2-59.3 22.2-2.2 0-4.4-0.1-6.5-0.2-24.2-1.7-46.2-12.7-62.1-31-15.9-18.3-23.7-41.7-22-65.9 1.9-27.1 24.7-48.3 51.8-48.3 1.2 0 2.5 0 3.7 0.1 3.2 0.2 6.4 0.8 9.5 1.6 1.3-2.9 2.9-5.7 4.7-8.4 9.7-14 25.7-22.4 42.8-22.4 10.6 0 20.8 3.2 29.6 9.3 22.6 15.7 36.8 40.9 38.8 67.9h89.4c-29.8-27.7-63.2-50.2-99.4-67-41.5-19.2-84.7-29.9-128.5-31.9-5.6-0.2-11.2-0.4-16.8-0.4-42.3 0-83.7 7.2-123.1 21.3-0.7 0.3-3 1.1-4.1 4.1-1.2 3.3 0.1 5.5 0.5 6.3l56.5 97.9c38.2 66.2 15.4 151.1-50.7 189.3-21 12.2-45 18.6-69.2 18.6-49.4 0-95.4-26.5-120-69.3l-26.1-45.2c-16.6 39.1-26 80.6-28.2 123.4-2.5 50.9 5.3 100.5 23.3 147.6 17.3 45.4 43.2 86.4 77 121.9 33.9 35.6 73.7 63.7 118.4 83.3C412.4 738.7 461.4 749 512 749c7.4 0 14.9-0.2 22.3-0.7 48.1-2.9 94.4-15 137.5-36.1 2.9-1.4 5.8-2.9 8.7-4.4 7.5-3.9 15.8-6 24.2-6 18.5 0 35.7 9.9 45 25.9l0.1 0.1c7.1 12.4 8.9 26.7 4.9 40.4-3.9 13.6-13.4 25.1-25.9 31.6C670.1 830.5 606.8 848 540.6 852c-9.5 0.6-19.1 0.9-28.5 0.9-65.1 0-128.2-13.3-187.6-39.4-57.3-25.2-108.4-61.2-151.9-106.8-43.3-45.5-76.6-98.2-98.8-156.4-23.2-60.6-33.3-124.5-30-189.9 3-60.2 17.3-118.4 42.5-172.9 16.1-34.9 50.1-56.6 88.7-56.6 35.5 0 67.2 18.3 85 49.1l32 55.4c6.2 10.7 17.6 17.3 30 17.3 5.8 0 11.6-1.5 16.8-4.4 7.9-4.4 13.6-11.8 16.1-20.8 2.6-9.3 1.4-19.1-3.4-27.4l-56.1-97.2c-16.6-28.7-19.5-63-8.1-94.1 11.4-31 35.7-55.1 66.7-66.2 50.7-18.2 103.9-27.4 158.2-27.4 7.1 0 14.3 0.2 21.4 0.5 57.4 2.6 113.8 16.5 167.6 41.4 51.8 24 98.9 57 140 98.2s74.1 88.3 98.1 140.1c24.9 53.8 38.8 110.2 41.3 167.6 2.3 58.3-5.7 115.6-24 170.2zM580.7 119.6c-14.5-10.1-18.2-30-8.1-44.5 6.2-9 16.2-13.8 26.3-13.8 6.3 0 12.6 1.8 18.2 5.7 20.5 14.2 32.1 38.4 30.3 63.2-1.3 18.8-9.9 36-24.2 48.4-14.3 12.4-32.5 18.5-51.4 17.1-18.8-1.3-36-9.9-48.4-24.2-12.4-14.3-18.5-32.5-17.1-51.4 1.2-16.9 15.2-29.7 31.9-29.7 0.8 0 1.5 0 2.3 0.1 17.6 1.2 30.9 16.6 29.7 34.2-0.2 2.3 0.8 3.9 1.6 4.9 0.8 1 2.3 2.1 4.6 2.3 2.3 0.1 3.9-0.8 4.9-1.6 1-0.8 2.1-2.3 2.3-4.6 0.3-3.6-2.1-5.6-2.9-6.1zM861.6 665.5l62.3 107.9c8.8 15.3 3.6 34.9-11.7 43.7-15.3 8.8-34.9 3.6-43.7-11.7l-52.6-91.1-32.9-57-183-317c-8.8-15.3-3.6-34.9 11.7-43.7 15.3-8.8 34.9-3.6 43.7 11.7l171.5 297c48.9-69.3 73.3-152.4 69.6-238.7-2-46.4-13.3-92.2-33.6-136.1-19.8-42.8-47.1-81.8-81.2-116s-73.1-61.5-115.9-81.3c-43.8-20.3-89.6-31.7-136.1-33.7-5.9-0.3-11.8-0.4-17.7-0.4-44.6 0-88.3 7.5-129.8 22.4-10.3 3.7-14.5 11.7-16.2 16.1-1.6 4.5-3.6 13.5 2 23.1l56.5 97.9c32.7 56.6 13.2 129.3-43.4 161.9-18 10.4-38.5 15.9-59.2 15.9-42.2 0-81.6-22.7-102.7-59.3l-32-55.4c-2.7-4.7-6.8-7.1-12.2-7.1-4 0-9.5 1.4-12.5 7.8-20.7 44.7-32.4 92.4-34.9 141.8-2.7 53.7 5.6 106.1 24.6 155.7 18.3 47.8 45.6 91.1 81.2 128.5 35.7 37.6 77.7 67.1 124.9 87.9 48.7 21.4 100.4 32.3 153.8 32.3 7.8 0 15.7-0.2 23.5-0.7 50.8-3.1 99.6-15.9 145.1-38.1 3.1-1.5 6.2-3.1 9.2-4.6 15.2-8 34-2.7 42.6 12.2l0.1 0.1c9.1 15.8 3.2 35.9-13 44.3-54.4 28.4-115.4 46-180.1 49.9-9.2 0.6-18.3 0.8-27.3 0.8C258.1 832.5 51 618.3 63.9 360.9c2.9-58.9 17.2-114.7 40.7-165.5 13.8-29.8 42.1-45 70.6-45 26.2 0 52.5 12.9 67.6 39.1l32 55.4c10.1 17.5 28.4 27.3 47.3 27.3 9 0 18.1-2.2 26.5-6.9 26.6-14.8 35.5-49.3 20.2-75.6l-56.1-97.2c-28.4-49.2-5.5-112.3 48-131.5 47.3-17 98.3-26.2 151.4-26.2 6.8 0 13.7 0.2 20.5 0.5 224.3 10 418 203.9 427.9 428.2 4.9 114.7-32.9 220.1-98.9 302z"  horiz-adv-x="1024" />

    
    <glyph glyph-name="yonghu1" unicode="&#59159;" d="M521.216 288.768c42.3168 0 88.7552-6.144 139.264-18.432 57.344-14.336 103.7568-33.4592 139.264-57.344 42.3168-27.9808 63.488-59.392 63.488-94.208v-86.016H179.2v86.016c0 34.816 21.1712 66.2272 63.488 94.208 35.5072 23.8848 81.92 43.008 139.264 57.344 50.5088 12.288 96.9472 18.432 139.264 18.432z m0 86.016c-30.72 0-59.0592 7.68-84.992 23.04a173.7984 173.7984 0 0 0-61.952 61.952c-15.36 25.9328-23.04 54.272-23.04 84.992 0 30.72 7.68 59.392 23.04 86.016a171.3408 171.3408 0 0 0 61.952 62.976c25.9328 15.36 54.272 23.04 84.992 23.04 30.72 0 59.0592-7.68 84.992-23.04 25.9328-15.36 46.592-36.352 61.952-62.976 15.36-26.624 23.04-55.296 23.04-86.016 0-30.72-7.68-59.0592-23.04-84.992a173.7984 173.7984 0 0 0-61.952-61.952c-25.9328-15.36-54.272-23.04-84.992-23.04z"  horiz-adv-x="1024" />

    
    <glyph glyph-name="qingdan" unicode="&#58942;" d="M888.890595 845.621093A170.063604 170.063604 0 0 1 768.092552 896H324.7025a171.733623 171.733623 0 0 1-171.17695-171.455287v-42.585485a41.750476 41.750476 0 0 1 83.500951 0V724.544713A87.954335 87.954335 0 0 0 324.7025 812.499049h443.390052a88.232672 88.232672 0 0 0 87.954335-87.954336v-680.81109a87.954335 87.954335 0 0 0-87.954335-87.954335H324.7025a87.954335 87.954335 0 0 0-87.954335 87.954335v154.755097h27.83365a41.750476 41.750476 0 0 1 0 83.500951h-27.83365v151.136722h27.83365a41.750476 41.750476 0 0 1 0 83.500951H126.248572a41.750476 41.750476 0 0 1 0-83.500951h27.833651v-151.415058h-27.833651a41.750476 41.750476 0 0 1 0-83.500952h27.833651v-154.755096a171.733623 171.733623 0 0 1 171.455287-171.455287h442.276705a171.733623 171.733623 0 0 1 171.455287 171.455287V724.544713a170.341941 170.341941 0 0 1-50.378907 121.07638zM724.672057 542.790976a41.750476 41.750476 0 0 1-41.750476 41.750475h-267.759717a41.750476 41.750476 0 0 1 0-83.500951h267.759717a41.750476 41.750476 0 0 1 41.750476 41.750476zM460.252378 400.282686a41.750476 41.750476 0 0 1 0-83.500952h173.960315a41.750476 41.750476 0 0 1 0 83.500952z"  horiz-adv-x="1024" />

    
    <glyph glyph-name="yunying" unicode="&#59713;" d="M704.165526 13.196612l74.259343-74.415132-66.469902-66.210254-140.20995 140.20995h-83.087377l-140.20995-140.573458-73.740048 73.42847 67.508495 67.144988H0V792.140778h415.436888V896h207.718444v-103.859222h415.436889v-778.944166h-334.426695zM934.732999 688.281556H103.859222v-571.225722h830.873777V688.281556zM441.401694 558.457528l10.905218 10.74943 144.883615-145.039404 144.883615 145.039404 73.740047-73.42847-207.718444-207.718444-10.905218 10.749429-10.905218-10.749429L441.401694 433.099447l-144.883615-145.039403-73.740048 73.42847 207.718444 207.718444z"  horiz-adv-x="1038" />

    
    <glyph glyph-name="yumaoqiu1" unicode="&#58880;" d="M235.3 165.29999999999995c-4.9 0-9.8 1.5-14.1 4.6-10.7 7.8-13.1 22.8-5.4 33.5l322.4 442.8c7.8 10.7 22.8 13.1 33.5 5.3s13.1-22.8 5.4-33.5L254.8 175.20000000000005c-4.7-6.4-12-9.9-19.5-9.9zM319.3 83.5c-7.5 0-14.8 3.4-19.6 9.9-7.9 10.8-5.6 26 5.2 33.9l441.2 323.3c10.8 7.9 26 5.6 33.9-5.2 7.9-10.8 5.6-26-5.2-33.9L333.6 88.10000000000002c-4.3-3.1-9.3-4.6-14.3-4.6zM950.7 371.79999999999995l-42.5 52a46.89 46.89 0 0 1-34 17l-93 4 24.7 110c3.5 15.7-1.1 31.8-12.5 43.2l-69.9 69.9c-11.6 11.6-28.6 16.2-44.5 12.2l-106.8-27.4-9.2 100.5c-1.3 13.4-8.2 25.6-19.1 33.5l-50.7 36.8c-11.6 8.4-26.2 11-40 7.1L391 813c-14.7-4.1-26.4-15.2-31.4-29.6L173.1 242.70000000000005 99.4 169C49 118.60000000000002 51 34.60000000000002 103.8-18.299999999999955l5.1-5.1c27.3-27.3 62.8-41 97.8-41 32.9 0 65.1 12.1 89.5 36.5l74.1 74.1 534 196.3c11.6 4.3 20.8 12.8 26.1 23.9l26.4 56c7.6 16.2 5.2 35.6-6.1 49.4zM262 6.2999999999999545c-15-15-34.9-22.4-55.3-22.4-22.5 0-45.7 9.1-63.5 26.9l-5.1 5.1c-34 34-36 87.3-4.5 118.8l60.6 60.7L322.6 67 262 6.2999999999999545z m625 281.3L365.4 95.79999999999995 222.9 238.29999999999995l182.3 528.3 60.4 17.1 49.3-35.7 9.1-99.7c1.3-14.2 8.7-27 20.3-35.2 11.6-8.2 26.1-10.9 39.9-7.4l105.8 27 68.4-68.4-25-111.2c-3-13.5 0.1-27.5 8.5-38.5s21.2-17.6 35-18.2l94.4-4.1 41.3-50.4-25.6-54.3z"  horiz-adv-x="1024" />

    
    <glyph glyph-name="guanxi" unicode="&#58926;" d="M810.4-4.8c-46.5-24.6-103.1-7.2-127.8 37.6-18.9 34.7-13.1 78 11.6 105.5l-36.3 67.9c-18.9-5.8-37.8-8.7-58.1-8.7-90 0-164.1 63.6-178.6 147.3h-75.5c-13.1-36.1-47.9-62.1-88.6-62.1-52.3 0-94.4 41.9-94.4 93.9s42.1 93.9 94.4 93.9c40.7 0 75.5-24.6 88.6-60.7h77c16 82.3 90 143 178.6 143 14.5 0 29-1.4 42.1-4.3l30.5 72.2c-29 26-39.2 67.9-23.2 105.4 20.3 47.7 75.5 70.8 123.4 50.6 47.9-20.2 71.2-75.1 50.8-122.8-16-37.6-52.3-59.2-90-57.8l-32-75.1c47.9-31.8 79.9-86.7 79.9-147.3 0-54.9-26.1-104-65.4-137.2l36.3-67.9c37.8 5.8 77-13 97.3-47.7 23.3-43.4 5.9-101.2-40.6-125.7z m0 0"  horiz-adv-x="1024" />

    
    <glyph glyph-name="changge" unicode="&#59490;" d="M780.064 79.52c-35.456-9.568-75.104-2.432-104.32 22.048l-305.44 255.712a21.568 21.568 0 0 0-5.216 6.432l-0.064 0.128a232.832 232.832 0 0 0-23.584-1.184h-0.128a234.656 234.656 0 1 0 233.472 210.944c2.432-1.28 4.704-3.04 6.56-5.28l255.712-305.44c34.848-41.632 34.528-104.416 0.928-146.016-0.384-0.48-2.4-9.312-3.232-12.416-22.816-81.312-74.272-127.328-150.624-143.008-58.464-12-125.6-6.816-224.48 12.064-14.944 2.848-29.44 5.792-51.616 10.336-172.736 35.552-230.816 38.816-264.736 3.744a21.344 21.344 0 1 0-30.688 29.664c28.672 29.664 72.16 39.904 132.256 36.48 42.4-2.4 73.984-7.968 171.744-28.096 22.016-4.512 36.352-7.392 51.04-10.24 176.16-33.696 270.08-22.304 312.32 64.032z m-364.16 295.232l287.264-240.48c27.616-23.136 71.52-21.216 96.992 4.256s27.424 69.344 4.256 96.992l-240.512 287.232a236.512 236.512 0 0 0-146.368-147.52l-1.664-0.48z m-74.56 30.592a192 192 0 1 1 0 384 192 192 0 1 1 0-384z m184.672-22.848l30.176 30.176 90.528-90.496-30.176-30.176-90.496 90.528z"  horiz-adv-x="1024" />

    
    <glyph glyph-name="wendang" unicode="&#58949;" d="M410.055 738.532h198.201c22.983 0 42.325 22.983 42.325 49.607s-19.342 49.607-43.463 49.607h-196.95c-24.234 0-43.576-22.983-43.576-49.607s19.342-49.607 43.463-49.607z m310.727-484.125H295.253c-15.701 0-29.013-13.312-29.013-29.013s13.312-29.014 29.013-29.014H721.92c15.701 0 29.013 13.312 29.013 29.014-1.137 16.839-14.45 29.013-30.15 29.013z m0 170.667H295.253c-15.701 0-29.013-13.312-29.013-29.014s13.312-29.013 29.013-29.013H721.92c15.701 0 29.013 13.312 29.013 29.013-1.137 16.84-14.45 29.014-30.15 29.014zM266.24 553.3c0-15.701 13.312-29.013 29.013-29.013H721.92c15.701 0 29.013 13.312 29.013 29.013s-13.312 29.014-29.013 29.014H295.253c-15.701 0.113-29.013-13.199-29.013-29.014zM821.02 809.984h-56.775c-15.701 0-33.905-9.671-33.905-25.372s18.09-31.517 33.905-31.517h56.775c33.792 0 56.776-22.983 56.776-56.889v-654.79c0-33.907-22.984-56.89-56.776-56.89H209.465c-33.906 0-71.339 22.983-71.339 56.89v654.79c0 33.906 22.983 56.89 56.775 56.89h71.339c15.701 0 21.732 15.7 21.732 31.516s-6.03 25.372-21.732 25.372h-71.339c-79.758 0-113.664-49.607-113.664-115.03v-647.622c0-70.201 42.326-119.808 119.695-119.808H814.99c77.37 0 119.694 41.187 119.694 119.808V694.955c0 65.422-39.936 115.029-113.664 115.029z"  horiz-adv-x="1024" />

    
    <glyph glyph-name="luru" unicode="&#58884;" d="M838.4 464l-416-416-6.4-51.2c0-6.4-3.2-22.4 9.6-35.2 9.6-9.6 19.2-9.6 25.6-9.6h9.6l51.2 6.4 416 416zM336 16H198.4c-22.4 0-38.4 16-38.4 35.2V716.8c0 19.2 16 35.2 38.4 35.2h563.2c22.4 0 38.4-16 38.4-35.2V560c0-19.2 12.8-32 32-32s32 12.8 32 32V716.8c0 54.4-44.8 99.2-102.4 99.2H198.4C140.8 816 96 771.2 96 716.8v-665.6c0-54.4 44.8-99.2 102.4-99.2H336c19.2 0 32 12.8 32 32s-12.8 32-32 32zM352 240h-64c-19.2 0-32-12.8-32-32s12.8-32 32-32h64c19.2 0 32 12.8 32 32s-12.8 32-32 32z m352 384c0 19.2-16 32-35.2 32H291.2c-19.2 0-35.2-12.8-35.2-32s16-32 35.2-32h377.6c19.2 0 35.2 12.8 35.2 32zM291.2 464c-19.2 0-35.2-12.8-35.2-32s16-32 35.2-32h281.6c19.2 0 35.2 12.8 35.2 32s-16 32-35.2 32z"  horiz-adv-x="1024" />

    
    <glyph glyph-name="right-fill" unicode="&#58882;" d="M261.926-4.663999999999987c0-45.217 60.383-74.14 95.029-39.496L746.223 345.08000000000004c22.32 22.331 22.32 55.531 0 77.853L356.966 812.19c-33.775 33.765-95.028 7.435-95.028-38.931l-0.012-777.923z"  horiz-adv-x="1024" />

    
    <glyph glyph-name="kanxiaoshuo" unicode="&#59021;" d="M741.74 673.7v-437.14A76.62 76.62 0 0 0 665.16 160H267.78c-19.78 0-35.78 3.12-35.78-16.58v-10a35.74 35.74 0 0 1 35.74-35.74h473.42c28.14 0 51.06 2.14 51.06 30.34v574a38.6 38.6 0 1 0 77.14 0v-611.18c0-33.06-35.3-64.86-63.48-64.86h-600.2a51.06 51.06 0 0 0-51.06 51.06V689.66a51.08 51.08 0 0 0 51.06 51.06h469.04a67.02 67.02 0 0 0 67.02-67.02zM444.98 350.68l64.2-18.76a22.34 22.34 0 0 1 28.58 20.78l2 66.88 37.66 55.24a22.34 22.34 0 0 1-10.96 33.6l-62.94 22.56-40.92 52.9a22.32 22.32 0 0 1-35.28 0l-40.92-52.9-62.98-22.56a22.32 22.32 0 0 1-10.9-33.6l37.66-55.24 2-66.88A22.32 22.32 0 0 1 380.8 332z"  horiz-adv-x="1024" />

    
    <glyph glyph-name="sort-bottom" unicode="&#58883;" d="M97.4688 829.62133331c-48.23146667 0-79.08266667-64.40746667-42.12906667-101.3632L470.528 313.03893330999995c23.8208-23.808 59.23413333-23.808 83.04426667 0L968.77866667 728.24639998c36.016 36.02666667 7.9296 101.3632-41.52746667 101.36319999l-829.78346667 0.01173334z"  horiz-adv-x="1024" />

    
    <glyph glyph-name="diannao" unicode="&#58966;" d="M878.528 98.88H597.44a218.24 218.24 0 0 1-3.968-40.704c0-81.472 81.408-81.472 81.408-81.472 22.528 0 40.768-9.088 40.768-20.352 0-11.264-18.24-20.352-40.768-20.352h-325.76c-22.528 0-40.768 9.088-40.768 20.352 0 11.264 18.24 20.352 40.768 20.352 0 0 81.408 0 81.408 81.472a218.24 218.24 0 0 1-3.968 40.704H145.472c-44.992 0-81.472 36.48-81.472 81.472v570.24C64 795.52 100.48 832 145.472 832h733.056C923.52 832 960 795.52 960 750.528v-570.176c0-44.992-36.48-81.472-81.472-81.472z m0 651.648H145.472v-488.704h733.056V750.528z"  horiz-adv-x="1024" />

    
    <glyph glyph-name="shixiao" unicode="&#58894;" d="M881.593754 391.553208a30.212493 30.212493 0 0 0 0-43.112209L691.322942 162.752981a30.04276 30.04276 0 0 0-41.924077 0 29.873027 29.873027 0 0 0 0 43.112209l190.101079 185.688018a30.212493 30.212493 0 0 0 42.09381 0zM879.72669 166.147643a30.04276 30.04276 0 0 0-42.942476 0L651.096196 357.267121a30.04276 30.04276 0 0 0 0 41.924077 29.873027 29.873027 0 0 0 43.112209 0l185.518285-190.101079a29.873027 29.873027 0 0 0 0-42.942476zM765.156843 10.502384a264.44418 264.44418 0 0 0-52.617263 5.091994A271.57297 271.57297 0 1 0 916.558774 505.613856a271.57297 271.57297 0 0 0-150.722998-495.960137z m0 473.555367a202.491596 202.491596 0 1 1 112.53305-33.946621 201.982396 201.982396 0 0 1-112.023851 33.946621zM446.737536-127.99983a42.60301 42.60301 0 0 0-21.216639 5.601192L21.046905 112.511981A42.433277 42.433277 0 0 0 0 149.174332V618.825837a42.433277 42.433277 0 0 0 21.046905 36.662351L425.520897 890.229074a42.433277 42.433277 0 0 0 42.60301 0L872.428166 655.318455a42.433277 42.433277 0 0 0-42.603009-73.324702L446.737536 804.513856 84.866553 594.38427v-420.76837l361.870983-210.129586 108.289722 62.801249a42.433277 42.433277 0 0 0 42.603009-73.494435L468.123907-122.398638a43.791141 43.791141 0 0 0-21.386371-5.601192z"  horiz-adv-x="1036" />

    
    <glyph glyph-name="bi" unicode="&#58885;" d="M295.581-35.44100000000003L92.254 167.885l562.027 562.032L857.607 526.5899999999999 295.581-35.44100000000003z m0 0M988.662 752.958L880.643 860.97c-26.32 26.32-70.851 24.462-99.462-4.153l-101.48-101.48 203.327-203.326 101.48 101.479c28.604 28.616 30.468 73.15 4.154 99.468z m0 0M73.373 135.89800000000002L1.486-126.20000000000005l262.07 71.888-190.183 190.21z m0 0"  horiz-adv-x="1024" />

    
    <glyph glyph-name="excel" unicode="&#58951;" d="M928 653c0 17.46-9 30.89-25.07 35.92-6.78 2.11-14.42 2.17-21.66 2.18q-150.37 0.16-300.73-0.14c-9.5 0-12.78 2.47-12.38 12 0.76 18.15 0.24 36.36 0.19 54.54 0 3.4-0.3 6.79-0.47 10.37a30.57 30.57 0 0 1-4.13 0q-151.49-27.85-302.94-55.74c-50-9.2-100-18.61-150.07-27.29-9.89-1.71-13.33-5.38-12.59-15.08 0.94-12.28 0.51-24.66 0.51-37q-0.12-266-0.25-531.9c0-17.17-1.59-13.86 14.54-16.89 71.52-13.41 143.12-26.46 214.68-39.66Q415.3 28.2 503 12c21.17-3.89 42.39-7.57 65.34-11.65v64c0 13.28 0 13.28 13.58 13.28h304.72c26.37 0 41.32 14.85 41.32 40.59V528.34c0.04 41.58 0.04 83.14 0.04 124.66zM361.38 256.72c-2 0.16-4.44 2.9-5.41 5-14.38 31.17-28.55 62.44-41.89 91.77-12.68-26.55-26.5-54.86-39.63-83.48-2.72-5.93-5.8-7.55-12.06-7-15.53 1.41-31.11 2.2-48.5 3.36 2.3 5.09 3.83 9.15 5.9 12.93 18.63 34 37.19 68 56.19 101.84 3.4 6.06 3.56 10.91 0.45 17-17.77 34.79-35.24 69.73-52.77 104.63-1.42 2.82-2.57 5.78-4.64 10.46 13.77 1 26.15 2.19 38.56 2.86 20.73 1.12 20.9 1.06 28.9-17.9C296.56 474.3 306.35 450.3 316 427c13.2 28.8 26.81 57.93 39.8 87.31 2.92 6.62 6.62 9.43 14 9.64 16.87 0.47 33.71 1.73 53.22 2.81-7-13.35-12.78-24.73-18.83-36-16.82-31.26-33.93-62.37-50.34-93.83-1.8-3.46-1.24-9.55 0.68-13.18 22-41.39 44.47-82.54 66.79-123.77 0.9-1.67 1.54-3.48 3.31-7.52-22.32 1.42-42.81 2.61-63.25 4.26z m535.35-136.54c0-12.92-0.05-12.95-13.15-12.95q-149.83-0.06-299.68-0.09h-15.62c0 15.9 0.07 30.45 0 45 0 7.21 5.23 6.27 9.78 6.28h92.9c3.55 0 7.1 0.48 11.43 0.79 0 21.21 0.26 41.63-0.4 62-0.07 1.92-5.84 5.22-9 5.26-30.3 0.39-60.6 0.13-90.9 0.32-4.37 0-12.19 0.82-12.5 2.39-1.36 6.82-0.94 14.1-0.11 21.09 0.13 1.11 5.67 2.27 8.71 2.29 30.3 0.15 60.6 0.08 90.9 0.06 13.84 0 13.83 0 13.81 13.94 0 14.94-0.34 29.89 0.16 44.8 0.24 7.33-2.37 9.49-9.72 9.41-30.63-0.33-61.26-0.18-91.9-0.15-13.08 0-13.09 0.06-13.1 12.8V348h113.31v69H568.4v23.51c0 6.71 5.18 5.53 9.3 5.54q43.95 0.12 87.9 0.08H682v68.04c-3.69 0.21-7.19 0.58-10.7 0.59-31 0-61.94 0.26-92.9-0.15-7.86-0.11-11 2.09-10.22 9.84 0.52 5.39 0.1 10.87 0.1 17.53h36.82c23.3 0.11 46.61 0.12 69.9 0.62 2.49 0.05 7 3.07 7 4.79 0.49 20.69 0.31 41.4 0.31 63.31h-39.52c-21.64 0-43.29 0.17-64.93-0.1-7.23-0.09-10.06 2.11-9.62 9.57a301.9 301.9 0 0 1-0.09 32.12c-0.34 7.12 2 9.77 9.6 9.58 18.3-0.46 36.62-0.16 54.93-0.16h250.74c13.28 0 13.33 0 13.33-12.67q0-264.41-0.02-528.86zM831.43 417.58c-30.62-0.41-61.24-0.21-91.86-0.22-26 0-26 0-26.05-25.19v-43.07h129c0 19.91-0.46 38.73 0.2 57.51 0.35 8.74-2.72 11.09-11.29 10.97zM720.25 446.52q57.82-0.67 115.65-0.13c2.22 0 6.26 3.8 6.31 5.9 0.48 20.37 0.29 40.76 0.29 61.23-2 0.5-3.19 1.09-4.44 1.09-39.22 0.09-78.43 0.24-117.65-0.14-2.29 0-6.44-4.33-6.52-6.75q-0.92-27.2-0.16-54.42c0.07-2.42 4.27-6.75 6.52-6.78zM721.63 541.94c37.89 0.08 75.78-0.06 113.66 0.22 2.4 0 6.82 2.88 6.86 4.49 0.47 21 0.31 41.93 0.31 62.35-1.74 0.84-2.31 1.35-2.88 1.36-39.88 0.13-79.76 0.34-119.63 0-2.19 0-6.13-4.52-6.21-7-0.51-17.81 0-35.64-0.33-53.46-0.11-6.1 2.49-7.97 8.22-7.96zM720.49 226.83c-6 0-7.18-3-7.14-8 0.14-16.54 0.54-33.1-0.07-49.62-0.32-8.5 2.32-11.17 11.17-11.07 35.92 0.41 71.85 0.1 107.77 0.12 3.2 0 6.4 0.46 9.91 0.73v66.29c-2 0.67-3 1.23-3.9 1.23-39.23 0.12-78.49 0.13-117.74 0.32zM842.48 319.31c-2.2 0.64-3.12 1.14-4 1.14-39.28 0.09-78.55 0.08-117.83 0.25-5.71 0-7.45-2.38-7.34-7.65 0.29-13.3 0.19-26.61 0.23-39.92v-20.42c42.15 0 82.06 0 122-0.07 5.16 0 7.11 1.87 7.07 6.87-0.21 19.77-0.13 39.55-0.13 59.8z"  horiz-adv-x="1024" />

    


  </font>
</defs>
</svg>
